# xmcd
#
# Track frame offsets:
#	182
#	13360
#	28577
#	39460
#	52742
#	65407
#	76512
#	89362
#	102792
#	113470
#	136875
#	147525
#	162427
#	178755
#	193090
#	206725
#	245247
#	262457
#	274112
#	287900
#
# Disc length: 4037
#
# Revision: 2
# Processed by: cddbd v1.5.1PL0 Copyright (c) Steve Scherf et al.
# Submitted via: CDex 1.50
# Normalized: r1:TDELIM( - )
#
DISCID=2a0fc314
DTITLE=Various Artist - La Route du Blues [CD 2/3)
DYEAR=1995
DGENRE=Blues
TTITLE0=B.B. King - Rock Me Baby
TTITLE1=Champion Jack Dupree - Blues Before Sunrise
TTITLE2=Elmore James - Madison Blues
TTITLE3=Junior Parker - Feelin' Good
TTITLE4=Jackie Brenston - Rocket 88
TTITLE5=JB Lenoir - mama Talk to Your Daughter
TTITLE6=Willie Mabon - Senventh Son
TTITLE7=Chuck Berry - No Money Down
TTITLE8=Arthur 'Big Boy' Crudup - That's All Right
TTITLE9=B.B. King - The Thrill is Gone
TTITLE10=Jimmy Reed - Baby, What You Want Me to Do ?
TTITLE11=Lonnie Pitchford - The Ghetto
TTITLE12=Willie Dixon - The Little Red Rooster
TTITLE13=Lowell Fulson - Reconsider Baby
TTITLE14=Koko Taylor - Wang Dang Doodle
TTITLE15=B.B. King - Why I sing the Blues
TTITLE16=David Dee - Goin' Fishin'
TTITLE17=John Lee Hooker - Boogie Chillun
TTITLE18=Bo Diddley - I'm A Man
TTITLE19=Sonny Boy Williamson - It's a Bloody Life
EXTD=YEAR: 1995
EXTT0=
EXTT1=
EXTT2=
EXTT3=
EXTT4=
EXTT5=
EXTT6=
EXTT7=
EXTT8=
EXTT9=
EXTT10=
EXTT11=
EXTT12=
EXTT13=
EXTT14=
EXTT15=
EXTT16=
EXTT17=
EXTT18=
EXTT19=
PLAYORDER=
